<svg width="1280" height="720" xmlns="http://www.w3.org/2000/svg" xmlns:xlink="http://www.w3.org/1999/xlink" overflow="hidden"><defs><clipPath id="clip0"><rect x="0" y="0" width="1280" height="720"/></clipPath></defs><g clip-path="url(#clip0)"><rect x="0" y="0" width="1280" height="720" fill="#FFFFFF"/><path d="M479.5 423.5 479.5 434.058" stroke="#800000" stroke-linejoin="round" stroke-miterlimit="10" fill="#4472C4" fill-rule="evenodd"/><path d="M482.5 423.5 482.5 434.058" stroke="#800000" stroke-linejoin="round" stroke-miterlimit="10" fill="#4472C4" fill-rule="evenodd"/><path d="M485.5 423.5 485.5 434.058" stroke="#800000" stroke-linejoin="round" stroke-miterlimit="10" fill="#4472C4" fill-rule="evenodd"/><path d="M487.5 423.5 487.5 434.058" stroke="#800000" stroke-linejoin="round" stroke-miterlimit="10" fill="#4472C4" fill-rule="evenodd"/><path d="M490.5 423.5 490.5 434.058" stroke="#800000" stroke-linejoin="round" stroke-miterlimit="10" fill="#4472C4" fill-rule="evenodd"/><path d="M479.5 434.5 490.058 434.5" stroke="#800000" stroke-linejoin="round" stroke-miterlimit="10" fill="#4472C4" fill-rule="evenodd"/><path d="M479.5 431.5 490.058 431.5" stroke="#800000" stroke-linejoin="round" stroke-miterlimit="10" fill="#4472C4" fill-rule="evenodd"/><path d="M479.5 428.5 490.058 428.5" stroke="#800000" stroke-linejoin="round" stroke-miterlimit="10" fill="#4472C4" fill-rule="evenodd"/><path d="M479.5 426.5 490.058 426.5" stroke="#800000" stroke-linejoin="round" stroke-miterlimit="10" fill="#4472C4" fill-rule="evenodd"/><path d="M479.5 423.5 490.058 423.5" stroke="#800000" stroke-linejoin="round" stroke-miterlimit="10" fill="#4472C4" fill-rule="evenodd"/><path d="M0 0 0.000104987 58.0946" stroke="#800000" stroke-linejoin="round" stroke-miterlimit="10" fill="#4472C4" fill-rule="evenodd" transform="matrix(-1 0 0 1 313.5 472.5)"/><path d="M0 0 0.000104987 58.0946" stroke="#800000" stroke-linejoin="round" stroke-miterlimit="10" fill="#4472C4" fill-rule="evenodd" transform="matrix(-1 0 0 1 328.5 472.5)"/><path d="M0 0 0.000104987 58.0946" stroke="#800000" stroke-linejoin="round" stroke-miterlimit="10" fill="#4472C4" fill-rule="evenodd" transform="matrix(-1 0 0 1 342.5 472.5)"/><path d="M0 0 0.000104987 58.0946" stroke="#800000" stroke-linejoin="round" stroke-miterlimit="10" fill="#4472C4" fill-rule="evenodd" transform="matrix(-1 0 0 1 357.5 472.5)"/><path d="M0 0 0.000104987 58.0946" stroke="#800000" stroke-linejoin="round" stroke-miterlimit="10" fill="#4472C4" fill-rule="evenodd" transform="matrix(-1 0 0 1 371.5 472.5)"/><path d="M0 0 0.000104987 58.0946" stroke="#800000" stroke-linejoin="round" stroke-miterlimit="10" fill="#4472C4" fill-rule="evenodd" transform="matrix(1.83697e-16 1 1 -1.83697e-16 313.5 530.5)"/><path d="M0 0 0.000104987 58.0946" stroke="#800000" stroke-linejoin="round" stroke-miterlimit="10" fill="#4472C4" fill-rule="evenodd" transform="matrix(1.83697e-16 1 1 -1.83697e-16 313.5 515.5)"/><path d="M0 0 0.000104987 58.0946" stroke="#800000" stroke-linejoin="round" stroke-miterlimit="10" fill="#4472C4" fill-rule="evenodd" transform="matrix(1.83697e-16 1 1 -1.83697e-16 313.5 501.5)"/><path d="M0 0 0.000104987 58.0946" stroke="#800000" stroke-linejoin="round" stroke-miterlimit="10" fill="#4472C4" fill-rule="evenodd" transform="matrix(1.83697e-16 1 1 -1.83697e-16 313.5 486.5)"/><path d="M0 0 0.000104987 58.0946" stroke="#800000" stroke-linejoin="round" stroke-miterlimit="10" fill="#4472C4" fill-rule="evenodd" transform="matrix(1.83697e-16 1 1 -1.83697e-16 313.5 472.5)"/><path d="M0 0 117.914 96.7623" stroke="#800000" stroke-linejoin="round" stroke-miterlimit="10" fill="#4472C4" fill-rule="evenodd" transform="matrix(1 0 0 -1 371.5 529.262)"/><path d="M0 0 118.236 47.8366" stroke="#800000" stroke-linejoin="round" stroke-miterlimit="10" fill="#4472C4" fill-rule="evenodd" transform="matrix(1 0 0 -1 370.5 473.337)"/><path d="M0 0 168.399 47.8489" stroke="#800000" stroke-linejoin="round" stroke-miterlimit="10" fill="#4472C4" fill-rule="evenodd" transform="matrix(1 0 0 -1 313.5 471.349)"/><rect x="289" y="545" width="112" height="55" fill="#FFFFFF"/><text fill="#A80000" font-family="Calibri,Calibri_MSFontService,sans-serif" font-weight="400" font-size="19" transform="translate(300.277 567)">N pixels per <tspan font-size="19" x="3.58002" y="23">block edge</tspan></text><path d="M320 540.167 363.997 540.167 363.997 541.833 320 541.833ZM321.333 547.667 308 541 321.333 534.333ZM362.663 534.333 375.997 541 362.663 547.667Z" fill="#800000"/><text fill="#7030A0" font-family="Calibri,Calibri_MSFontService,sans-serif" font-weight="400" font-size="19" transform="translate(502.24 700)">R blocks per patch edge</text><path d="M12.0042-0.777008 224.852 0.221857 224.844 1.88851 11.9964 0.88964ZM13.3019 6.72916 0 0 13.3645-6.60402ZM223.546-5.61767 236.848 1.1115 223.483 7.71552Z" fill="#7030A0" transform="matrix(1 0 0 -1 483 672.112)"/><rect x="429" y="323" width="331" height="331" stroke="#000000" stroke-width="2" stroke-linejoin="round" stroke-miterlimit="10" fill="none"/><path d="M0 0 0.000104987 331.38" stroke="#7030A0" stroke-linejoin="round" stroke-miterlimit="10" fill="#4472C4" fill-rule="evenodd" transform="matrix(1.83697e-16 1 1 -1.83697e-16 427.5 629.5)"/><path d="M0 0 0.000104987 331.38" stroke="#7030A0" stroke-linejoin="round" stroke-miterlimit="10" fill="#4472C4" fill-rule="evenodd" transform="matrix(1.83697e-16 1 1 -1.83697e-16 427.5 609.5)"/><path d="M0 0 0.000104987 331.38" stroke="#7030A0" stroke-linejoin="round" stroke-miterlimit="10" fill="#4472C4" fill-rule="evenodd" transform="matrix(1.83697e-16 1 1 -1.83697e-16 427.5 588.5)"/><path d="M0 0 0.000104987 331.38" stroke="#7030A0" stroke-linejoin="round" stroke-miterlimit="10" fill="#4472C4" fill-rule="evenodd" transform="matrix(1.83697e-16 1 1 -1.83697e-16 427.5 567.5)"/><path d="M0 0 0.000104987 331.38" stroke="#7030A0" stroke-linejoin="round" stroke-miterlimit="10" fill="#4472C4" fill-rule="evenodd" transform="matrix(1.83697e-16 1 1 -1.83697e-16 427.5 547.5)"/><path d="M0 0 0.000104987 331.38" stroke="#7030A0" stroke-linejoin="round" stroke-miterlimit="10" fill="#4472C4" fill-rule="evenodd" transform="matrix(1.83697e-16 1 1 -1.83697e-16 427.5 526.5)"/><path d="M0 0 0.000104987 331.38" stroke="#7030A0" stroke-linejoin="round" stroke-miterlimit="10" fill="#4472C4" fill-rule="evenodd" transform="matrix(1.83697e-16 1 1 -1.83697e-16 427.5 506.5)"/><path d="M0 0 0.000104987 331.38" stroke="#7030A0" stroke-linejoin="round" stroke-miterlimit="10" fill="#4472C4" fill-rule="evenodd" transform="matrix(1.83697e-16 1 1 -1.83697e-16 427.5 485.5)"/><path d="M0 0 0.000104987 331.38" stroke="#7030A0" stroke-linejoin="round" stroke-miterlimit="10" fill="#4472C4" fill-rule="evenodd" transform="matrix(1.83697e-16 1 1 -1.83697e-16 427.5 464.5)"/><path d="M0 0 0.000104987 331.38" stroke="#7030A0" stroke-linejoin="round" stroke-miterlimit="10" fill="#4472C4" fill-rule="evenodd" transform="matrix(1.83697e-16 1 1 -1.83697e-16 427.5 444.5)"/><path d="M0 0 0.000104987 331.38" stroke="#7030A0" stroke-linejoin="round" stroke-miterlimit="10" fill="#4472C4" fill-rule="evenodd" transform="matrix(1.83697e-16 1 1 -1.83697e-16 427.5 423.5)"/><path d="M0 0 0.000104987 331.38" stroke="#7030A0" stroke-linejoin="round" stroke-miterlimit="10" fill="#4472C4" fill-rule="evenodd" transform="matrix(1.83697e-16 1 1 -1.83697e-16 427.5 403.5)"/><path d="M0 0 0.000104987 331.38" stroke="#7030A0" stroke-linejoin="round" stroke-miterlimit="10" fill="#4472C4" fill-rule="evenodd" transform="matrix(1.83697e-16 1 1 -1.83697e-16 427.5 382.5)"/><path d="M0 0 0.000104987 331.38" stroke="#7030A0" stroke-linejoin="round" stroke-miterlimit="10" fill="#4472C4" fill-rule="evenodd" transform="matrix(1.83697e-16 1 1 -1.83697e-16 427.5 361.5)"/><path d="M0 0 0.000104987 331.38" stroke="#7030A0" stroke-linejoin="round" stroke-miterlimit="10" fill="#4472C4" fill-rule="evenodd" transform="matrix(1.83697e-16 1 1 -1.83697e-16 427.5 341.5)"/><path d="M0 0 0.000104987 331.38" stroke="#7030A0" stroke-linejoin="round" stroke-miterlimit="10" fill="#4472C4" fill-rule="evenodd" transform="matrix(1.83697e-16 1 1 -1.83697e-16 427.5 640.5)"/><path d="M0 0 0.000104987 331.38" stroke="#7030A0" stroke-linejoin="round" stroke-miterlimit="10" fill="#4472C4" fill-rule="evenodd" transform="matrix(1.83697e-16 1 1 -1.83697e-16 427.5 619.5)"/><path d="M0 0 0.000104987 331.38" stroke="#7030A0" stroke-linejoin="round" stroke-miterlimit="10" fill="#4472C4" fill-rule="evenodd" transform="matrix(1.83697e-16 1 1 -1.83697e-16 427.5 598.5)"/><path d="M0 0 0.000104987 331.38" stroke="#7030A0" stroke-linejoin="round" stroke-miterlimit="10" fill="#4472C4" fill-rule="evenodd" transform="matrix(1.83697e-16 1 1 -1.83697e-16 427.5 578.5)"/><path d="M0 0 0.000104987 331.38" stroke="#7030A0" stroke-linejoin="round" stroke-miterlimit="10" fill="#4472C4" fill-rule="evenodd" transform="matrix(1.83697e-16 1 1 -1.83697e-16 427.5 557.5)"/><path d="M0 0 0.000104987 331.38" stroke="#7030A0" stroke-linejoin="round" stroke-miterlimit="10" fill="#4472C4" fill-rule="evenodd" transform="matrix(1.83697e-16 1 1 -1.83697e-16 427.5 537.5)"/><path d="M0 0 0.000104987 331.38" stroke="#7030A0" stroke-linejoin="round" stroke-miterlimit="10" fill="#4472C4" fill-rule="evenodd" transform="matrix(1.83697e-16 1 1 -1.83697e-16 427.5 516.5)"/><path d="M0 0 0.000104987 331.38" stroke="#7030A0" stroke-linejoin="round" stroke-miterlimit="10" fill="#4472C4" fill-rule="evenodd" transform="matrix(1.83697e-16 1 1 -1.83697e-16 427.5 495.5)"/><path d="M0 0 0.000104987 331.38" stroke="#7030A0" stroke-linejoin="round" stroke-miterlimit="10" fill="#4472C4" fill-rule="evenodd" transform="matrix(1.83697e-16 1 1 -1.83697e-16 427.5 475.5)"/><path d="M0 0 0.000104987 331.38" stroke="#7030A0" stroke-linejoin="round" stroke-miterlimit="10" fill="#4472C4" fill-rule="evenodd" transform="matrix(1.83697e-16 1 1 -1.83697e-16 427.5 454.5)"/><path d="M0 0 0.000104987 331.38" stroke="#7030A0" stroke-linejoin="round" stroke-miterlimit="10" fill="#4472C4" fill-rule="evenodd" transform="matrix(1.83697e-16 1 1 -1.83697e-16 427.5 434.5)"/><path d="M0 0 0.000104987 331.38" stroke="#7030A0" stroke-linejoin="round" stroke-miterlimit="10" fill="#4472C4" fill-rule="evenodd" transform="matrix(1.83697e-16 1 1 -1.83697e-16 427.5 413.5)"/><path d="M0 0 0.000104987 331.38" stroke="#7030A0" stroke-linejoin="round" stroke-miterlimit="10" fill="#4472C4" fill-rule="evenodd" transform="matrix(1.83697e-16 1 1 -1.83697e-16 427.5 392.5)"/><path d="M0 0 0.000104987 331.38" stroke="#7030A0" stroke-linejoin="round" stroke-miterlimit="10" fill="#4472C4" fill-rule="evenodd" transform="matrix(1.83697e-16 1 1 -1.83697e-16 427.5 372.5)"/><path d="M0 0 0.000104987 331.38" stroke="#7030A0" stroke-linejoin="round" stroke-miterlimit="10" fill="#4472C4" fill-rule="evenodd" transform="matrix(1.83697e-16 1 1 -1.83697e-16 427.5 351.5)"/><path d="M0 0 0.000104987 331.38" stroke="#7030A0" stroke-linejoin="round" stroke-miterlimit="10" fill="#4472C4" fill-rule="evenodd" transform="matrix(1.83697e-16 1 1 -1.83697e-16 427.5 331.5)"/><path d="M0 0 0.000104987 331.38" stroke="#7030A0" stroke-linejoin="round" stroke-miterlimit="10" fill="#4472C4" fill-rule="evenodd" transform="matrix(1 -1.22465e-16 -1.22465e-16 -1 737.5 652.88)"/><path d="M0 0 0.000104987 331.38" stroke="#7030A0" stroke-linejoin="round" stroke-miterlimit="10" fill="#4472C4" fill-rule="evenodd" transform="matrix(1 -1.22465e-16 -1.22465e-16 -1 716.5 652.88)"/><path d="M0 0 0.000104987 331.38" stroke="#7030A0" stroke-linejoin="round" stroke-miterlimit="10" fill="#4472C4" fill-rule="evenodd" transform="matrix(1 -1.22465e-16 -1.22465e-16 -1 696.5 652.88)"/><path d="M0 0 0.000104987 331.38" stroke="#7030A0" stroke-linejoin="round" stroke-miterlimit="10" fill="#4472C4" fill-rule="evenodd" transform="matrix(1 -1.22465e-16 -1.22465e-16 -1 675.5 652.88)"/><path d="M0 0 0.000104987 331.38" stroke="#7030A0" stroke-linejoin="round" stroke-miterlimit="10" fill="#4472C4" fill-rule="evenodd" transform="matrix(1 -1.22465e-16 -1.22465e-16 -1 654.5 652.88)"/><path d="M0 0 0.000104987 331.38" stroke="#7030A0" stroke-linejoin="round" stroke-miterlimit="10" fill="#4472C4" fill-rule="evenodd" transform="matrix(1 -1.22465e-16 -1.22465e-16 -1 634.5 652.88)"/><path d="M0 0 0.000104987 331.38" stroke="#7030A0" stroke-linejoin="round" stroke-miterlimit="10" fill="#4472C4" fill-rule="evenodd" transform="matrix(1 -1.22465e-16 -1.22465e-16 -1 613.5 652.88)"/><path d="M0 0 0.000104987 331.38" stroke="#7030A0" stroke-linejoin="round" stroke-miterlimit="10" fill="#4472C4" fill-rule="evenodd" transform="matrix(1 -1.22465e-16 -1.22465e-16 -1 593.5 652.88)"/><path d="M0 0 0.000104987 331.38" stroke="#7030A0" stroke-linejoin="round" stroke-miterlimit="10" fill="#4472C4" fill-rule="evenodd" transform="matrix(1 -1.22465e-16 -1.22465e-16 -1 572.5 652.88)"/><path d="M0 0 0.000104987 331.38" stroke="#7030A0" stroke-linejoin="round" stroke-miterlimit="10" fill="#4472C4" fill-rule="evenodd" transform="matrix(1 -1.22465e-16 -1.22465e-16 -1 551.5 652.88)"/><path d="M0 0 0.000104987 331.38" stroke="#7030A0" stroke-linejoin="round" stroke-miterlimit="10" fill="#4472C4" fill-rule="evenodd" transform="matrix(1 -1.22465e-16 -1.22465e-16 -1 531.5 652.88)"/><path d="M0 0 0.000104987 331.38" stroke="#7030A0" stroke-linejoin="round" stroke-miterlimit="10" fill="#4472C4" fill-rule="evenodd" transform="matrix(1 -1.22465e-16 -1.22465e-16 -1 510.5 652.88)"/><path d="M0 0 0.000104987 331.38" stroke="#7030A0" stroke-linejoin="round" stroke-miterlimit="10" fill="#4472C4" fill-rule="evenodd" transform="matrix(1 -1.22465e-16 -1.22465e-16 -1 490.5 652.88)"/><path d="M0 0 0.000104987 331.38" stroke="#7030A0" stroke-linejoin="round" stroke-miterlimit="10" fill="#4472C4" fill-rule="evenodd" transform="matrix(1 -1.22465e-16 -1.22465e-16 -1 469.5 652.88)"/><path d="M0 0 0.000104987 331.38" stroke="#7030A0" stroke-linejoin="round" stroke-miterlimit="10" fill="#4472C4" fill-rule="evenodd" transform="matrix(1 -1.22465e-16 -1.22465e-16 -1 448.5 652.88)"/><path d="M0 0 0.000104987 331.38" stroke="#7030A0" stroke-linejoin="round" stroke-miterlimit="10" fill="#4472C4" fill-rule="evenodd" transform="matrix(1 -1.22465e-16 -1.22465e-16 -1 747.5 652.88)"/><path d="M0 0 0.000104987 331.38" stroke="#7030A0" stroke-linejoin="round" stroke-miterlimit="10" fill="#4472C4" fill-rule="evenodd" transform="matrix(1 -1.22465e-16 -1.22465e-16 -1 727.5 652.88)"/><path d="M0 0 0.000104987 331.38" stroke="#7030A0" stroke-linejoin="round" stroke-miterlimit="10" fill="#4472C4" fill-rule="evenodd" transform="matrix(1 -1.22465e-16 -1.22465e-16 -1 706.5 652.88)"/><path d="M0 0 0.000104987 331.38" stroke="#7030A0" stroke-linejoin="round" stroke-miterlimit="10" fill="#4472C4" fill-rule="evenodd" transform="matrix(1 -1.22465e-16 -1.22465e-16 -1 685.5 652.88)"/><path d="M0 0 0.000104987 331.38" stroke="#7030A0" stroke-linejoin="round" stroke-miterlimit="10" fill="#4472C4" fill-rule="evenodd" transform="matrix(1 -1.22465e-16 -1.22465e-16 -1 665.5 652.88)"/><path d="M0 0 0.000104987 331.38" stroke="#7030A0" stroke-linejoin="round" stroke-miterlimit="10" fill="#4472C4" fill-rule="evenodd" transform="matrix(1 -1.22465e-16 -1.22465e-16 -1 644.5 652.88)"/><path d="M0 0 0.000104987 331.38" stroke="#7030A0" stroke-linejoin="round" stroke-miterlimit="10" fill="#4472C4" fill-rule="evenodd" transform="matrix(1 -1.22465e-16 -1.22465e-16 -1 624.5 652.88)"/><path d="M0 0 0.000104987 331.38" stroke="#7030A0" stroke-linejoin="round" stroke-miterlimit="10" fill="#4472C4" fill-rule="evenodd" transform="matrix(1 -1.22465e-16 -1.22465e-16 -1 603.5 652.88)"/><path d="M0 0 0.000104987 331.38" stroke="#7030A0" stroke-linejoin="round" stroke-miterlimit="10" fill="#4472C4" fill-rule="evenodd" transform="matrix(1 -1.22465e-16 -1.22465e-16 -1 582.5 652.88)"/><path d="M0 0 0.000104987 331.38" stroke="#7030A0" stroke-linejoin="round" stroke-miterlimit="10" fill="#4472C4" fill-rule="evenodd" transform="matrix(1 -1.22465e-16 -1.22465e-16 -1 562.5 652.88)"/><path d="M0 0 0.000104987 331.38" stroke="#7030A0" stroke-linejoin="round" stroke-miterlimit="10" fill="#4472C4" fill-rule="evenodd" transform="matrix(1 -1.22465e-16 -1.22465e-16 -1 541.5 652.88)"/><path d="M0 0 0.000104987 331.38" stroke="#7030A0" stroke-linejoin="round" stroke-miterlimit="10" fill="#4472C4" fill-rule="evenodd" transform="matrix(1 -1.22465e-16 -1.22465e-16 -1 521.5 652.88)"/><path d="M0 0 0.000104987 331.38" stroke="#7030A0" stroke-linejoin="round" stroke-miterlimit="10" fill="#4472C4" fill-rule="evenodd" transform="matrix(1 -1.22465e-16 -1.22465e-16 -1 500.5 652.88)"/><path d="M0 0 0.000104987 331.38" stroke="#7030A0" stroke-linejoin="round" stroke-miterlimit="10" fill="#4472C4" fill-rule="evenodd" transform="matrix(1 -1.22465e-16 -1.22465e-16 -1 479.5 652.88)"/><path d="M0 0 0.000104987 331.38" stroke="#7030A0" stroke-linejoin="round" stroke-miterlimit="10" fill="#4472C4" fill-rule="evenodd" transform="matrix(1 -1.22465e-16 -1.22465e-16 -1 459.5 652.88)"/><path d="M0 0 0.000104987 331.38" stroke="#7030A0" stroke-linejoin="round" stroke-miterlimit="10" fill="#4472C4" fill-rule="evenodd" transform="matrix(1 -1.22465e-16 -1.22465e-16 -1 438.5 652.88)"/></g></svg>